<?xml version="1.0" encoding="iso-8859-1"?>
<!-- Generator: Adobe Illustrator 22.0.0, SVG Export Plug-In . SVG Version: 6.00 Build 0)  -->
<svg version="1.1" xmlns="http://www.w3.org/2000/svg" xmlns:xlink="http://www.w3.org/1999/xlink" x="0px" y="0px" width="1080px"
	 height="1080px" viewBox="0 0 1080 1080" enable-background="new 0 0 1080 1080" xml:space="preserve">
<g id="Tennis">
</g>
<g id="Sewing">
</g>
<g id="Sculpting">
</g>
<g id="Reading">
</g>
<g id="Painting">
	<g id="Plant_6_">
		<path id="plant" fill="#6A977E" d="M895.583,834.408c-0.806,1.201-1.625,2.514-2.453,3.918c-1.432,2.429-5.159,1.275-4.95-1.538
			c1.394-18.785,2.993-37.643,4.329-46.295c5.134-33.248-27.8-39.396-37.912-12.171c-4.956,13.344-9.569,34.192-13.236,54.087
			c-0.843,4.571-7.081,5.315-8.97,1.068c-5.972-13.424-10.536-24.091-13.273-27.828c-8.824-12.048-28.329-6.695-32.641,8.156
			c-4.476,15.415,12.673,65.914,22.992,73.368h50.2l0,0h16.574h24.491c6.988-14.464,9.766-15.98,23.181-39.372
			C938.207,822.88,906.425,818.252,895.583,834.408z"/>
		<path id="pot_1_" fill="#D6BAB4" d="M864.393,947.674h-18.586c-13.438,0-25.068-9.346-27.96-22.47l-8.38-38.032h91.265
			l-8.38,38.032C889.461,938.328,877.831,947.674,864.393,947.674z"/>
	</g>
	<g id="Paint_and_Easle">
		<g id="Easle">
			<polygon fill="#D6BAB4" points="603.21,160.288 521.591,580.398 825.931,580.398 895.201,160.288 			"/>
			<g>
				<rect x="497.492" y="580.398" fill="#424242" width="327.424" height="24.109"/>
				<polygon fill="#000100" points="824.917,580.398 850.406,580.398 850.406,600.337 824.917,604.507 				"/>
				<polygon fill="#000100" points="850.413,580.398 824.917,580.398 894.175,160.353 916.981,176.671 				"/>
			</g>
			<g>
				<rect x="603.875" y="825.747" fill="#424242" width="158.219" height="38.885"/>
				<polygon fill="#000100" points="790.253,945.083 723.21,604.507 677.284,604.507 676.281,604.507 630.354,604.507 
					569.515,939.72 616.445,939.72 676.803,607.158 743.323,945.083 				"/>
			</g>
		</g>
		<g id="paint">
			<g id="canvas">
				<polygon fill="#BE4D4D" points="811.653,580.398 507.312,580.398 598.636,110.337 889.158,110.337 				"/>
				<polygon fill="#F2E0DA" points="829.408,580.398 812.159,580.398 889.664,110.337 904.223,126.655 				"/>
			</g>
			<g id="shape">
				<path fill="#E98B41" d="M570.535,254.977c19.141,17.923,44.865,28.902,73.156,28.902c59.129,0,107.062-47.933,107.062-107.062
					c0-25.121-8.655-48.217-23.141-66.479H598.636L570.535,254.977z"/>
				<path fill="#6A977E" d="M846.141,247.849c-12.392,11.907-23.107,25.459-33.137,39.376
					c-10.768,14.94-18.855,30.562-24.799,48.012c-6.378,18.726-10.896,37.916-19.763,55.713
					c-14.846,29.8-37.017,56.155-61.844,78.142c-33.629,29.783-84.448,62.864-86.667,111.307h191.721l57.766-350.345
					C860.706,234.588,852.866,241.387,846.141,247.849z"/>
				<polygon fill="#F2E0DA" points="650.331,420.425 604.339,504.563 716.951,491.954 				"/>
				<g>
					<g>
						<path fill="#F2E0DA" d="M582.889,248.513c13.438,20.609,26.876,41.218,40.315,61.826c4.202,6.445,14.596,0.438,10.362-6.057
							c-13.438-20.609-26.876-41.218-40.315-61.826C589.048,236.012,578.654,242.019,582.889,248.513L582.889,248.513z"/>
					</g>
					<g>
						<path fill="#F2E0DA" d="M607.274,237.018c13.438,20.609,26.876,41.218,40.315,61.826c4.202,6.445,14.596,0.438,10.362-6.057
							c-13.438-20.609-26.876-41.218-40.315-61.826C613.434,224.517,603.04,230.524,607.274,237.018L607.274,237.018z"/>
					</g>
					<g>
						<path fill="#F2E0DA" d="M632.595,224.913c14.334,21.983,28.668,43.965,43.002,65.948c4.202,6.444,14.596,0.438,10.362-6.057
							c-14.334-21.983-28.668-43.965-43.002-65.948C638.755,212.411,628.361,218.418,632.595,224.913L632.595,224.913z"/>
					</g>
				</g>
				<path fill="#4E5C8E" d="M813.308,170.606c-11.239,11.969-19.546,26.422-24.955,41.885c-5.443,15.561-7.648,32.453-15.39,47.156
					c-7.932,15.064-22.466,23.3-34.717,34.365c-12.974,11.718-22.336,28.12-23.177,45.843c-0.845,17.813,9.458,33.153,20.717,45.98
					c10.476,11.934,22.886,22.122,36.17,30.782c19.212,12.525,40.23,21.845,61.815,29.635l1.988-12.056
					c-15.042-5.52-29.772-11.833-43.821-19.591c-12.806-7.071-24.991-15.299-35.806-25.178
					c-10.949-10.001-22.827-22.336-27.389-36.783c-5.194-16.45,2.433-34.422,13.981-46.3c10.535-10.837,24.201-18.215,33.687-30.134
					c9.705-12.195,14.044-27.195,18.048-41.998c4.039-14.933,8.659-29.237,17.225-42.273c15.621-23.772,42.453-39.815,70.298-38.07
					l1.971-11.957C857.838,139.885,831.391,151.35,813.308,170.606z"/>
			</g>
		</g>
	</g>
	<g id="Girl_2_">
		<g id="hand_with_palette">
			<g id="hand_2_1_">
				<path fill="#E98B41" d="M221.861,540.177c1.573-0.291,3.169-0.703,4.784-1.241c76.276-19.817,126.932-36.739,190.007-76.863
					l-21.248-30.585c-48.378,20.909-81.314,25.068-117.561,31.615c20.244-43.534,37.47-89.777,37.47-89.777l-54.747-38.765
					c0,0-61.464,112.87-72.411,150.765C178.299,519.444,197.115,544.758,221.861,540.177L221.861,540.177
					C221.861,540.177,221.861,540.177,221.861,540.177z"/>
				<path fill="#814F50" d="M465.56,413.069l-17.047-16.044c-2.317-2.18-6.054-1.671-7.703,1.049l-12.658,15.4l-16.249,7.922
					l-0.927-7.183l3.408-6.202c0.846-1.791,0.534-3.817-0.613-5.256c-0.313-0.393-0.688-0.741-1.118-1.03
					c-0.143-0.096-0.293-0.186-0.449-0.268c-0.156-0.082-0.317-0.157-0.484-0.224l-2.318-0.927
					c-0.543-0.217-1.106-0.333-1.665-0.354c-1.677-0.064-3.323,0.721-4.315,2.168l-3.65,5.673c-1.545,2.401-2.497,5.135-2.777,7.976
					l-1.59,16.141l14.584,20.993v0l6.664,9.592l33.058-17.83c0.76-0.41,1.401-1.01,1.86-1.741l14.796-23.553
					C467.638,417.347,467.299,414.707,465.56,413.069z"/>
			</g>
			<g id="palette">
				<path fill="#F2E0DA" d="M377.362,375.553c4.621-34.633,58.333-64.642,119.161-52.597c56.608,11.209,90.381,59.592,79.45,92.777
					c-16.01,48.605-61.168,48.014-113.564,15.269C436.245,414.65,370.524,426.802,377.362,375.553z"/>
				<g>
					
						<ellipse transform="matrix(0.8914 -0.4531 0.4531 0.8914 -114.7563 229.4827)" fill="#BE4D4D" cx="421.583" cy="354.253" rx="16.988" ry="12.267"/>
					
						<ellipse transform="matrix(0.8914 -0.4531 0.4531 0.8914 -103.3109 250.7577)" fill="#E98B41" cx="471.709" cy="341.002" rx="16.046" ry="11.587"/>
					
						<ellipse transform="matrix(0.8914 -0.4531 0.4531 0.8914 -103.5115 270.8811)" fill="#6A977E" cx="513.609" cy="351.483" rx="16.046" ry="11.587"/>
					
						<ellipse transform="matrix(0.8914 -0.4531 0.4531 0.8914 -112.6166 286.195)" fill="#4E5C8E" cx="541.019" cy="378.143" rx="17.606" ry="12.713"/>
					
						<ellipse transform="matrix(0.8914 -0.4531 0.4531 0.8914 -131.3943 288.0846)" fill="#000100" cx="535.574" cy="418.28" rx="19.491" ry="14.075"/>
				</g>
			</g>
		</g>
		<g id="legs_1_">
			<g id="leg_2_2_">
				<path id="shoes_3_" fill="#BE4D4D" d="M421.826,949.471c-20.27-14.591-49.828-72.209-50.569-80.724
					c-1.563-17.959,8.456-14.876,30.298-37.832l41.135,23.528c-11.051,24.68,5.425,60.916,5.425,60.916
					c10.572,0.378,23.288,5.753,25.062,9.941C480.837,943.382,432.54,954.024,421.826,949.471z"/>
				<path fill="#4E5C8E" d="M626.056,581.157c-0.097-5.147-1.465-9.745-4.132-13.535c-1.827-4.071-4.594-6.579-8.152-7.745
					c-39.785-26.105-159.619,9.231-263.234,9.231l-99.789,1.682c-17.619,47.833-42.521,151.315,69.624,151.315
					c35.417,0,87.57-9.689,138.159-24.822c-33.6,62.412-56.976,133.633-56.976,133.633c9.085,5.196,41.135,23.528,41.135,23.528
					c24.527-33.409,60.41-81.185,110.415-153.527C602.956,628.798,629.872,608.223,626.056,581.157z"/>
				<g>
					<path d="M423.716,842.54c-0.32,0-0.645-0.077-0.946-0.239c-0.973-0.523-1.336-1.736-0.812-2.709
						c25.674-47.662,54.231-94.459,84.878-139.091l2.597-3.773c12.373-17.968,25.167-36.546,31.897-57.342
						c2.971-9.177,2.868-15.861-0.313-20.438c-5.058-7.271-16.418-7.131-24.524-6.395c-21.589,1.963-46.916,7.938-71.409,13.717
						c-51.377,12.121-104.502,24.655-129.961,2.15c-12.868-11.376-17.661-30.298-14.653-57.847c0.12-1.099,1.101-1.891,2.206-1.771
						c1.098,0.12,1.891,1.107,1.771,2.205c-2.856,26.164,1.502,43.964,13.326,54.416c9.445,8.35,23.299,11.481,39.701,11.482
						c25.114,0.002,56.213-7.338,86.692-14.529c24.628-5.811,50.095-11.818,71.965-13.808c9.101-0.829,21.922-0.89,28.17,8.096
						c3.944,5.671,4.218,13.506,0.836,23.953c-6.909,21.351-19.872,40.174-32.409,58.378l-2.593,3.769
						c-30.566,44.515-59.048,91.188-84.654,138.724C425.117,842.159,424.428,842.54,423.716,842.54z"/>
				</g>
			</g>
			<g id="leg_1_2_">
				<path id="shoes_2_" fill="#BE4D4D" d="M662.284,955.545c-4.743,0.189-92.118,3.007-98.669-2.482
					c-14.58-12.216-7.563-28.126,0-58.897h47.388c17.342,31.135,52.395,32.878,60.576,39.104
					C687.205,945.162,673.845,954.178,662.284,955.545z"/>
				<path fill="#4E5C8E" d="M619.052,564.179c-2.001-2.045-4.351-3.816-7.004-5.357c-0.036-0.025-0.069-0.049-0.105-0.074
					c-1.771-1.232-3.473-2.059-5.117-2.509c-45.435-18.84-158.141,12.87-256.288,12.87l-99.789,1.682
					c-17.619,47.833-42.521,151.315,69.624,151.315c60.169,0,168.636-27.964,235.681-63.082c0,0,0,0.001,0,0.001
					c-25.167,75.714,7.561,235.141,7.561,235.141c10.466,0,47.388,0,47.388,0c4.703-41.178,12.131-100.465,19.62-188.088
					C638.619,612.529,645.476,586.615,619.052,564.179z"/>
				<g>
					<path d="M587.792,892.719c-1.078,0-1.968-0.858-1.998-1.943c-0.862-30.28-0.46-51.969-0.033-74.93
						c0.261-14.05,0.53-28.579,0.53-45.938c0-4.824-0.011-9.565-0.021-14.247c-0.1-44.243-0.187-82.453,8.668-133.055
						c1.346-7.69,0.031-15.036-3.516-19.649c-2.908-3.782-7.337-5.956-13.164-6.462c-3.979-0.311-31.195,6.443-35.279,7.546
						l0.005,0.018c-0.153,0.038-0.329,0.082-0.521,0.114c-3.868,0.838-31.17,6.708-56.958,11.169
						c-9.95,1.721-19.704,3.431-29.308,5.113c-48.914,8.573-95.116,16.671-143.068,21.911c-9.038,0.989-16.579-1.749-21.823-7.912
						c-10.093-11.86-11.092-34.897-2.814-64.865c0.294-1.064,1.395-1.688,2.46-1.396c1.064,0.294,1.689,1.396,1.395,2.46
						c-7.799,28.236-7.068,50.546,2.005,61.208c4.409,5.18,10.58,7.376,18.342,6.528c47.824-5.226,93.964-13.312,142.812-21.874
						c9.607-1.684,19.364-3.394,29.317-5.115c26.945-4.661,55.56-10.868,57.179-11.221c1.894-0.623,6.102-1.638,15.956-3.934
						c17.275-4.026,19.808-3.812,20.645-3.735c6.99,0.606,12.369,3.301,15.989,8.009c6.081,7.908,5.021,18.562,4.284,22.776
						c-8.793,50.255-8.707,88.302-8.607,132.356c0.011,4.684,0.021,9.429,0.021,14.256c0,17.396-0.271,31.943-0.531,46.012
						c-0.426,22.913-0.827,44.555,0.032,74.742c0.031,1.104-0.838,2.024-1.942,2.056
						C587.83,892.719,587.811,892.719,587.792,892.719z"/>
				</g>
				<path d="M556.473,637.92c-26.37,11.894-69.482,18.21-81.545,22.273c-34.635,11.665-49.861,35.026-83.699,53.769
					c44.259-6.542,134.284-38.131,160.987-52.7c-3.689,16.353-6.787,34.811-6.668,46.138c0.012,1.097,0.904,1.979,2,1.979
					c0.007,0,0.014,0,0.021,0c1.104-0.012,1.99-0.917,1.979-2.021c-0.136-12.865,4.039-35.363,8.423-53.056c0,0,0,0,0,0
					c0.17-0.605,1.979-6.565,3.522-12.03C562.339,639.277,559.309,636.641,556.473,637.92z"/>
			</g>
		</g>
		<g id="neck_2_">
			<path fill="#C27774" d="M323.911,343.922l-63.344-9.361c9.651-17.035,17.361-35.303,20.717-56.335l46.374,7.042
				C322.24,307.646,316.713,330.098,323.911,343.922z"/>
			<path fill="#000002" d="M302.269,301.953c5.387,5.184,11.677,12.064,18.783,15.862c1.158-10.142,3.896-21.354,6.606-32.548
				l-41.79-6.346C289.068,287.958,295.368,295.312,302.269,301.953z"/>
		</g>
		<g id="body_with_brush">
			<g id="brush">
				
					<rect x="636.031" y="251.031" transform="matrix(0.9392 0.3434 -0.3434 0.9392 144.4929 -202.9847)" fill="#000100" width="18.551" height="110.809"/>
				<path fill="#BE4D4D" d="M688.685,232.228c0,15.187-12.702,29.934-24.786,24.853c-10.145-4.265-16.244-13.048-12.359-27.465
					c3.713-13.778,23.596-20.901,31.167-37.24C682.707,192.377,688.685,217.042,688.685,232.228z"/>
			</g>
			<g id="hand_1_1_">
				<path fill="#E98B41" d="M453.982,442.707c16.302,4.507,128.042-60.035,135.503-64.36l0,0l25.975,22.713l0,0
					c-59.636,72.966-156.502,112.947-176.074,111.895c-54.109-2.909-143.608-79.309-154.866-110.695
					c-13.191-36.774,27.5-81.702,59.708-47.979C367.706,378.863,440.894,439.088,453.982,442.707z"/>
				<path fill="#814F50" d="M651.124,333.529c-2.938-4.829-8.994-1.354-11.786,0.97l-32.57,30.061l13.482-12.443l-11.826-0.014
					c-4.856-0.006-9.237,2.915-11.098,7.4l-7.826,18.858l25.961,22.698c0,0,40.061-19.466,43.174-31.673
					C661.747,357.179,651.124,333.529,651.124,333.529z"/>
			</g>
			<g id="body_3_">
				<g>
					<path fill="#E98B41" d="M350.538,569.108c-37.841,13.992-70.451,15.465-99.789,1.682c-6.79-95.514-10.553-185.984,9.817-236.23
						l63.344,9.361c27.129,30.247,53.49,58.676,70.016,90.949C403.824,454.199,361.154,501.914,350.538,569.108z"/>
					<g>
						<path d="M250.747,572.791c-1.01,0-1.878-0.763-1.986-1.79c-6.009-56.792-7.207-114.386-3.56-171.181
							c0.072-1.103,1.034-1.919,2.124-1.868c1.103,0.071,1.939,1.022,1.868,2.124c-3.632,56.57-2.439,113.937,3.545,170.505
							c0.116,1.098-0.68,2.083-1.778,2.199C250.889,572.787,250.818,572.791,250.747,572.791z"/>
					</g>
					<path fill="#000100" d="M373.55,487.681c-0.283-0.145-0.605-0.304-0.95-0.471c-24.958-14.687-46.486-31.006-69.937-61.992
						c-0.666-0.88-1.919-1.054-2.802-0.388c-0.881,0.667-1.054,1.921-0.388,2.802c1.372,1.812,2.736,3.569,4.096,5.285
						c-0.469,1.563-2.848,10.651,1.235,22.395c7.137,20.527,16.912,28.565,30.503,28.565s27.57,16.196,41.958,5.807
						C376.558,489.35,375.121,488.485,373.55,487.681z"/>
				</g>
				<g>
					<path fill="#BE4D4D" d="M322.007,324.515c-3.695-2.101-48.759-11.388-53.034-11.952c-4.567-0.602-8.406,21.998-8.406,21.998
						c22.712,6.283,44.198,10.141,63.344,9.361C323.911,343.922,327.081,327.4,322.007,324.515z"/>
					<g>
						<path d="M316.791,346.121c-17.007,0-36.076-3.236-56.815-9.65c-1.055-0.326-1.646-1.446-1.32-2.501s1.447-1.647,2.501-1.32
							c23.274,7.198,44.347,10.316,62.64,9.275c1.101-0.068,2.048,0.78,2.11,1.883c0.063,1.103-0.78,2.048-1.883,2.11
							C321.658,346.054,319.244,346.121,316.791,346.121z"/>
					</g>
				</g>
			</g>
		</g>
		<g id="head_2_">
			<g id="face_5_">
				<path id="face_7_" fill="#C27774" d="M358.765,226.918c0,35.47-4.917,74.108-21.073,74.108
					c-42.498,0-80.011-36.999-82.888-72.352c-2.459-30.205,9.371-71.415,61.815-68.137
					C344.716,162.293,358.765,191.448,358.765,226.918z"/>
				<g id="face_6_">
					<circle fill="#000100" cx="344.887" cy="241.602" r="4.116"/>
					<path fill="#FFFFFF" d="M329.058,258.445c0,5.939,1.28,11.165,6.72,13.549c6.716,2.944,13.225,1.146,14.625-4.544
						L329.058,258.445z"/>
					<g>
						<path d="M361.208,271.399c-0.637,0-1.28-0.123-1.896-0.374l-13.969-5.691c-1.023-0.417-1.515-1.583-1.098-2.606
							c0.417-1.023,1.584-1.515,2.606-1.098l13.969,5.691c0.52,0.209,0.901-0.055,1.042-0.179c0.14-0.124,0.449-0.471,0.3-1.012
							l-5.957-21.695c-0.292-1.065,0.334-2.166,1.399-2.458c1.066-0.291,2.166,0.334,2.458,1.399l5.957,21.695
							c0.508,1.85-0.068,3.79-1.502,5.063C363.581,270.965,362.405,271.399,361.208,271.399z"/>
					</g>
				</g>
			</g>
			<path id="hair_2_" fill="#000100" d="M315.55,159.263c-14.053-0.497-25.052,1.861-33.606,6.145
				c-8.102-21.104-27.899-36.02-51.055-36.02c-30.364,0-54.978,25.636-54.978,57.259s24.615,57.259,54.978,57.259
				c9.144,0,17.758-2.338,25.344-6.451c3.522,14.81,12.673,29.345,25.309,40.771c5.201-4.18,9.551-9.539,12.313-15.585
				c-12.712-4.842-18.795-23.482-10.924-34.806c4.797-6.901,14.036-7.126,19.488-0.909c2.414,2.753,5.016,10.776,6.141,14.371
				c18.544-8.85,43.385-24.063,51.896-42.962C354.264,178.806,342.264,160.208,315.55,159.263z"/>
		</g>
	</g>
	<g id="Chair">
		<g>
			<path fill="#000100" d="M366.899,958.695c0,8.256-38.052,10.968-84.992,10.968s-84.992-2.712-84.992-10.968
				s38.052-18.929,84.992-18.929S366.899,950.439,366.899,958.695z"/>
			<path fill="#6A977E" d="M298.136,948.271c-10.82,4.388-21.639,4.388-32.459,0V779.965h32.459V948.271z"/>
		</g>
		<path fill="#D6BAB4" d="M399.491,761.784c0,11.246-54.24,18.182-122.835,18.182s-124.201-55.607-124.201-124.201
			c0-56.038,37.112-103.408,88.1-118.873c0.972-0.295,9.82-1.423,12.3,8.159c4.714,18.212-8.624,84.388,23.118,113.23
			C307.156,686.613,399.491,695.431,399.491,761.784z"/>
	</g>
</g>
<g id="Guitar">
</g>
<g id="Golf">
</g>
<g id="Gaming">
</g>
<g id="Cooking">
</g>
<g id="Cycling">
</g>
<g id="Baking">
</g>
</svg>
